<svg xmlns="http://www.w3.org/2000/svg" width="392.6" height="393.7">
  <path fill="#00A0B2" d="M322.7 307.2A161.8 161.8 0 0 0 213.4 40l2.5-30A191.9 191.9 0 1 1 8.5 207.8l30-1a161.8 161.8 0 0 0 284.1 100.4z"/>
  <path fill="#00A0B2" d="M326 55.8a192.4 192.4 0 1 1-318 152h.5A191.9 191.9 0 1 0 216 10v-.5c39.3 3.1 78 18.4 110.2 46.2z"/>
  <path fill="#00E2B7" d="M180 40.8L176.2 11v-.5L174.8 0c-48 6-94 29.2-128 68.6A201.8 201.8 0 0 0 0 168.6l10.4 1.7.5.1 29.6 4.8 13 2.1A148.1 148.1 0 0 1 181.6 53.7l-1.6-13z"/>
</svg>
